<svg xmlns="http://www.w3.org/2000/svg" xmlns:xlink="http://www.w3.org/1999/xlink" width="64" height="64" id="calculation"><defs><path id="a" d="M63.833.04H.06V64h63.773V.04z"></path></defs><g fill="none" fill-rule="evenodd"><path fill="#FFFFFE" d="M38 45h12a2 2 0 1 0 0-4H38a2 2 0 1 0 0 4M14 24h4v4a2 2 0 1 0 4 0v-4h4a2 2 0 1 0 0-4h-4v-4a2 2 0 1 0-4 0v4h-4a2 2 0 1 0 0 4M26.828 37.172a1.998 1.998 0 0 0-2.828 0l-4 4-4-4a1.998 1.998 0 0 0-2.828 0 1.998 1.998 0 0 0 0 2.828l4 4-4 4A2 2 0 1 0 16 50.828l4-4 4 4A2 2 0 1 0 26.828 48l-4-4 4-4a1.998 1.998 0 0 0 0-2.828M38 24h12a2 2 0 1 0 0-4H38a2 2 0 1 0 0 4M42 37a2 2 0 1 0 3.999.001A2 2 0 0 0 42 37"></path><mask id="b" fill="#fff"><use xlink:href="#a"></use></mask><path fill="#FFFFFE" d="M44 47a2 2 0 1 0-.001 3.999A2 2 0 0 0 44 47" mask="url(#b)"></path><path fill="#4C5665" d="M14 20h4v-4a2 2 0 1 1 4 0v4h4a2 2 0 1 1 0 4h-4v4a2 2 0 1 1-4 0v-4h-4a2 2 0 1 1 0-4zm12.828 28A2 2 0 1 1 24 50.828l-4-4-4 4A2 2 0 1 1 13.172 48l4-4-4-4a1.998 1.998 0 0 1 0-2.828 1.998 1.998 0 0 1 2.828 0l4 4 4-4a1.998 1.998 0 0 1 2.828 0 1.998 1.998 0 0 1 0 2.828l-4 4 4 4zM38 41h12a2 2 0 1 1 0 4H38a2 2 0 1 1 0-4zm8-4a2 2 0 1 1-3.999.001A2 2 0 0 1 46 37zm-8-17h12a2 2 0 1 1 0 4H38a2 2 0 1 1 0-4zm6 31a2 2 0 1 1-.001-3.999A2 2 0 0 1 44 51zM31.833 64c17.674 0 32-14.327 32-32 0-17.673-14.326-32-32-32-17.673 0-32 14.327-32 32 0 17.673 14.327 32 32 32z" mask="url(#b)"></path></g></svg>