<svg width="32" height="32" viewBox="0 0 32 32" fill="none" xmlns="http://www.w3.org/2000/svg">
<g clip-path="url(#clip0_1185_1167)">
<path d="M26.2143 24H12.8571C12.6488 24 12.4489 23.9158 12.3016 23.7658L5.23018 16.5658C4.92327 16.2533 4.92327 15.7468 5.23018 15.4343L12.3016 8.23424C12.4489 8.08424 12.6488 8 12.8571 8H26.2143C26.6482 8 27 8.35824 27 8.8V23.2C27 23.6418 26.6482 24 26.2143 24ZM13.1826 22.4H25.4286V9.6H13.1826L6.89691 16L13.1826 22.4Z" fill="#118ab2"/>
<path d="M19.1784 16L23 12.1784L21.8216 11L18 14.8216L14.1786 11L13 12.1784L16.8216 16L13 19.8216L14.1786 21L18 17.1784L21.8216 21L23 19.8216L19.1784 16Z" fill="#118ab2"/>
</g>
<defs>
<clipPath id="clip0_1185_1167">
<rect width="32" height="32" fill="white"/>
</clipPath>
</defs>
</svg>
