<svg width="32" height="32" viewBox="0 0 32 32" fill="none" xmlns="http://www.w3.org/2000/svg">
<g clip-path="url(#clip0_1185_1158)">
<path d="M11.5 14C11.0055 14 10.5222 13.8534 10.1111 13.5787C9.69995 13.304 9.37952 12.9135 9.1903 12.4567C9.00108 11.9999 8.95157 11.4972 9.04804 11.0123C9.1445 10.5273 9.3826 10.0819 9.73223 9.73223C10.0819 9.3826 10.5273 9.1445 11.0123 9.04804C11.4972 8.95157 11.9999 9.00108 12.4567 9.1903C12.9135 9.37952 13.304 9.69995 13.5787 10.1111C13.8534 10.5222 14 11.0055 14 11.5C13.9993 12.1628 13.7356 12.7983 13.267 13.267C12.7983 13.7356 12.1628 13.9993 11.5 14Z" fill="#118ab2"/>
<path d="M23.0573 7.99986L8 23.0571L8.94272 23.9998L24 8.94257L23.0573 7.99986Z" fill="#118ab2"/>
<path d="M20.5 23C20.0055 23 19.5222 22.8534 19.1111 22.5787C18.7 22.304 18.3795 21.9135 18.1903 21.4567C18.0011 20.9999 17.9516 20.4972 18.048 20.0123C18.1445 19.5273 18.3826 19.0819 18.7322 18.7322C19.0819 18.3826 19.5273 18.1445 20.0123 18.048C20.4972 17.9516 20.9999 18.0011 21.4567 18.1903C21.9135 18.3795 22.304 18.7 22.5787 19.1111C22.8534 19.5222 23 20.0055 23 20.5C22.9993 21.1628 22.7356 21.7983 22.267 22.267C21.7983 22.7356 21.1628 22.9993 20.5 23Z" fill="#118ab2"/>
</g>
<defs>
<clipPath id="clip0_1185_1158">
<rect width="32" height="32" fill="white"/>
</clipPath>
</defs>
</svg>
